<svg width="180" height="180" viewBox="0 0 180 180" fill="none" xmlns="http://www.w3.org/2000/svg">
<path d="M150 112.545V79.95C150 73.815 150 70.7475 148.86 67.9875C147.72 65.2275 145.552 63.06 141.21 58.725L105.69 23.1825C101.947 19.44 100.08 17.5725 97.755 16.4625C97.2738 16.2314 96.7806 16.0261 96.2775 15.8475C93.855 15 91.2075 15 85.92 15C61.5825 15 49.41 15 41.1675 21.645C39.5028 22.9894 37.9866 24.508 36.645 26.175C30 34.425 30 46.5975 30 70.95V105.038C30 133.335 30 147.487 38.79 156.277C45.8625 163.35 56.4 164.73 75 165M97.5 18.75V22.5C97.5 43.725 97.5 54.3375 104.092 60.93C110.677 67.5225 121.29 67.5225 142.5 67.5225H146.25" stroke="white" stroke-opacity="0.65" stroke-width="1.5" stroke-linecap="round" stroke-linejoin="round"/>
<path d="M107.452 165L98.37 156.855C92.79 151.852 90 149.355 90 146.25C90 143.145 92.79 140.648 98.37 135.645L107.445 127.5M132.548 165L141.638 156.855C147.21 151.852 150 149.355 150 146.25C150 143.145 147.21 140.648 141.63 135.645L132.562 127.5" stroke="white" stroke-opacity="0.65" stroke-width="1.5" stroke-linecap="round" stroke-linejoin="round"/>
</svg>
