<svg width="180" height="180" viewBox="0 0 180 180" fill="none" xmlns="http://www.w3.org/2000/svg">
<path d="M127.5 157.5V142.5C127.5 134.544 124.339 126.913 118.713 121.287C113.087 115.661 105.456 112.5 97.5 112.5H37.5C29.5435 112.5 21.9129 115.661 16.2868 121.287C10.6607 126.913 7.5 134.544 7.5 142.5V157.5" stroke="white" stroke-opacity="0.65" stroke-width="2.1" stroke-linecap="round" stroke-linejoin="round"/>
<path d="M67.5 82.5C84.0685 82.5 97.5 69.0685 97.5 52.5C97.5 35.9315 84.0685 22.5 67.5 22.5C50.9315 22.5 37.5 35.9315 37.5 52.5C37.5 69.0685 50.9315 82.5 67.5 82.5Z" stroke="white" stroke-opacity="0.65" stroke-width="2.1" stroke-linecap="round" stroke-linejoin="round"/>
<path d="M172.5 157.5V142.5C172.495 135.853 170.283 129.395 166.21 124.142C162.138 118.889 156.436 115.136 150 113.475" stroke="white" stroke-opacity="0.65" stroke-width="2.1" stroke-linecap="round" stroke-linejoin="round"/>
<path d="M120 23.4746C126.453 25.1269 132.173 28.8799 136.257 34.1419C140.342 39.404 142.559 45.8758 142.559 52.5371C142.559 59.1984 140.342 65.6702 136.257 70.9323C132.173 76.1943 126.453 79.9473 120 81.5996" stroke="white" stroke-opacity="0.65" stroke-width="2.1" stroke-linecap="round" stroke-linejoin="round"/>
</svg>
