<svg width="24" height="24" viewBox="0 0 24 24" fill="none" xmlns="http://www.w3.org/2000/svg">
<path d="M20.117 7.62574C19.9233 7.60337 19.7272 7.63813 19.553 7.72574L15 10.0007V14.0007L19.553 16.2757C19.7053 16.3518 19.8744 16.3878 20.0445 16.3802C20.2145 16.3726 20.3799 16.3218 20.5248 16.2325C20.6697 16.1431 20.7894 16.0183 20.8725 15.8698C20.9557 15.7213 20.9996 15.554 21 15.3837V8.61774C20.9997 8.37298 20.9097 8.13682 20.747 7.954C20.5842 7.77117 20.3601 7.65438 20.117 7.62574Z" fill="#7847EB"/>
<path d="M5 5C3.355 5 2 6.355 2 8V16C2 17.645 3.355 19 5 19H13C14.645 19 16 17.645 16 16V8C16 6.355 14.645 5 13 5H5Z" fill="#7847EB"/>
</svg>
