<svg width="180" height="180" viewBox="0 0 180 180" fill="none" xmlns="http://www.w3.org/2000/svg">
<path d="M142.305 112.666C142.305 112.614 142.326 112.564 142.362 112.528C142.399 112.491 142.448 112.471 142.5 112.471C142.552 112.471 142.601 112.491 142.638 112.528C142.674 112.564 142.695 112.614 142.695 112.666C143.813 118.119 146.508 123.125 150.445 127.061C154.382 130.997 159.388 133.69 164.843 134.806C165.053 134.851 165.053 135.151 164.843 135.196C159.387 136.312 154.38 139.006 150.443 142.944C146.506 146.881 143.812 151.888 142.695 157.343C142.65 157.553 142.35 157.553 142.305 157.343C141.188 151.888 138.494 146.881 134.557 142.944C130.62 139.006 125.613 136.312 120.158 135.196C119.948 135.151 119.948 134.851 120.158 134.806C125.613 133.689 130.62 130.995 134.557 127.058C138.494 123.12 141.188 118.113 142.305 112.658V112.666Z" stroke="white" stroke-opacity="0.65" stroke-width="1.5"/>
<path d="M109.853 95.0482C115.41 91.1482 118.192 89.1982 119.302 86.3707C120.218 83.8719 120.218 81.1295 119.302 78.6307C118.192 75.8032 115.41 73.8532 109.853 69.9532C106.111 67.3036 102.284 64.7772 98.3775 62.3782C95.1201 60.4356 91.8088 58.5848 88.4475 56.8282C82.5375 53.7232 79.5825 52.1707 76.725 52.5532C74.2021 52.9719 71.939 54.3506 70.41 56.4007C68.655 58.8232 68.43 62.3032 67.995 69.2632C67.7025 73.8382 67.5 78.4957 67.5 82.5007C67.5 86.5057 67.7025 91.1632 67.995 95.7382C68.43 102.698 68.655 106.178 70.41 108.601C71.8725 110.611 74.3475 112.118 76.725 112.441C79.5825 112.831 82.5375 111.278 88.4475 108.166C91.9425 106.328 95.4225 104.416 98.3775 102.623C102.284 100.224 106.111 97.6978 109.853 95.0482Z" stroke="white" stroke-opacity="0.65" stroke-width="1.5" stroke-linecap="round"/>
<path d="M164.04 111.27C165 104.423 165 95.46 165 82.5C165 61.5 165 51 160.912 42.975C157.317 35.9192 151.581 30.1827 144.525 26.5875C136.5 22.5 126 22.5 105 22.5H75C54 22.5 43.5 22.5 35.475 26.5875C28.4192 30.1827 22.6827 35.9192 19.0875 42.975C15 51 15 61.5 15 82.5C15 103.5 15 114 19.0875 122.025C22.6827 129.081 28.4192 134.817 35.475 138.412C43.5 142.5 54 142.5 75 142.5H100.695" stroke="white" stroke-opacity="0.65" stroke-width="1.5" stroke-linecap="round" stroke-linejoin="round"/>
</svg>
